<?xml version="1.0" encoding="UTF-8"?>
<svg width="800px" height="800px" viewBox="0 0 800 800" version="1.1" xmlns="http://www.w3.org/2000/svg">
    <defs>
        <linearGradient x1="50%" y1="0%" x2="50%" y2="100%" id="gradient">
            <stop stop-color="#1a1a1a" stop-opacity="0.4" offset="0%"></stop>
            <stop stop-color="#111111" stop-opacity="0.8" offset="100%"></stop>
        </linearGradient>
    </defs>
    <g stroke="none" stroke-width="1" fill="none" fill-rule="evenodd">
        <rect id="bg" fill="url(#gradient)" x="0" y="0" width="800" height="800"></rect>
        <path d="M400,100 C500,100 600,200 600,300 C600,400 500,500 400,500 C300,500 200,400 200,300 C200,200 300,100 400,100 Z" 
              stroke="#333" stroke-width="1" opacity="0.3"></path>
        <path d="M400,150 C475,150 550,225 550,300 C550,375 475,450 400,450 C325,450 250,375 250,300 C250,225 325,150 400,150 Z" 
              stroke="#333" stroke-width="1" opacity="0.2"></path>
        <path d="M400,200 C450,200 500,250 500,300 C500,350 450,400 400,400 C350,400 300,350 300,300 C300,250 350,200 400,200 Z" 
              stroke="#333" stroke-width="1" opacity="0.1"></path>
    </g>
</svg>
